<?xml version="1.0"?>
<!--Icons from directory ""-->
<svg xmlns="http://www.w3.org/2000/svg" width="120" height="216" viewBox="0 0 120 216"><svg width="24" height="24" id="barcode-enabled" y="0"><g fill="#454545"><path d="M2 7.978H0V0h7.978v2H2zM16 2V0h7.978v7.978h-2V2zM21.978 16.022h2V24H16v-2h5.978zM7.978 22v2H0v-7.978h2V22zM5 5h2v14H5z"/><path d="M18 5h1v14h-1zM8 5h1v14H8zM10 5h1v14h-1zM16 5h1v14h-1zM12 5h3v14h-3z"/></g></svg><svg width="24" height="24" id="barcode-white" y="24"><g fill="#FFF"><path d="M2 7.978H0V0h7.978v2H2zM16 2V0h7.978v7.978h-2V2zM21.978 16.022h2V24H16v-2h5.978zM7.978 22v2H0v-7.978h2V22zM5 5h2v14H5z"/><path d="M18 5h1v14h-1zM8 5h1v14H8zM10 5h1v14h-1zM16 5h1v14h-1zM12 5h3v14h-3z"/></g></svg><svg width="48" height="48" id="empty-cart" y="48"><circle cx="33.161" cy="38" r="3"/><circle cx="15.161" cy="37.998" r="3"/><path d="M31.662 29H16.661a1.5 1.5 0 0 1-1.289-.734l-7.107-12a1.496 1.496 0 0 1 .526-2.054 1.497 1.497 0 0 1 2.055.524L17.517 26H30.49l4.948-19.863A1.5 1.5 0 0 1 36.894 5h3.768a1.5 1.5 0 1 1 0 3h-2.596L33.12 27.863A1.505 1.505 0 0 1 31.662 29z"/><path d="M28.555 17h-19a1.5 1.5 0 1 1 0-3h19a1.5 1.5 0 0 1 0 3z"/></svg><svg viewBox="0 0 31.75 31.75" height="120" width="120" id="part-abstract" y="96"><path d="M15.875 1.862L2.911 9.441v12.964l12.964 7.485 12.964-7.485V9.44z" style="isolation:auto;mix-blend-mode:normal" color="#000" overflow="visible" fill="none" stroke="#ccc" stroke-width="1.058"/><path d="M11.146 4.627L7.915 6.515l12.964 7.579v4.276l3.23-1.865v-4.3z" style="isolation:auto;mix-blend-mode:normal" color="#000" overflow="visible" fill="#ccc"/><path d="M15.875 17.019v12.87M28.839 9.442l-12.964 7.578L2.911 9.441" fill="none" stroke="#ccc" stroke-width="1.058"/></svg></svg>
