<?xml version="1.0" encoding="utf-8"?>
<!-- Generator: Adobe Illustrator 16.0.4, SVG Export Plug-In . SVG Version: 6.00 Build 0)  -->
<!DOCTYPE svg PUBLIC "-//W3C//DTD SVG 1.1//EN" "http://www.w3.org/Graphics/SVG/1.1/DTD/svg11.dtd">
<svg version="1.1" id="Шар_1" xmlns="http://www.w3.org/2000/svg" xmlns:xlink="http://www.w3.org/1999/xlink" x="0px" y="0px"
	 width="32px" height="32px" viewBox="0 0 32 32" enable-background="new 0 0 32 32" xml:space="preserve">
<polygon fill="#fff" points="16,7 16,2 12,2 12,7 9,7 14,12 19,7 "/>
<g>
	<circle fill="#fff" cx="22" cy="28" r="2"/>
</g>
<g>
	<circle fill="#fff" cx="10" cy="27.999" r="2"/>
</g>
<path fill="#fff" d="M21.001,22H11c-0.354,0-0.68-0.187-0.86-0.49l-4.738-8c-0.282-0.476-0.125-1.089,0.351-1.37
	c0.476-0.282,1.089-0.124,1.37,0.351L11.57,20h8.649l3.298-13.242C23.629,6.312,24.029,6,24.488,6H27c0.553,0,1,0.448,1,1
	s-0.447,1-1,1h-1.73l-3.298,13.242C21.86,21.688,21.46,22,21.001,22z"/>
</svg>
