<?xml version="1.0" encoding="utf-8"?>
<!-- Generator: Adobe Illustrator 16.0.4, SVG Export Plug-In . SVG Version: 6.00 Build 0)  -->
<!DOCTYPE svg PUBLIC "-//W3C//DTD SVG 1.1//EN" "http://www.w3.org/Graphics/SVG/1.1/DTD/svg11.dtd">
<svg version="1.1" id="icon" xmlns="http://www.w3.org/2000/svg" xmlns:xlink="http://www.w3.org/1999/xlink" x="0px" y="0px"
     width="48px" height="48px" viewBox="0 0 48 48" enable-background="new 0 0 48 48" xml:space="preserve">
<polygon fill="#FFFFFF" points="40,33 40,25 34,25 34,33 29.505,33 37.005,40.5 44.505,33 "/>
    <path fill="#FFFFFF" d="M17,6.716L4,14.114v13.781l13,7.398l13-7.398V14.114L17,6.716z M27.231,14.55l-4.184,2.426l-10.324-6.158
	l4.037-2.341L27.231,14.55z M16.761,20.621L6.289,14.55l4.926-2.856l10.324,6.155L16.761,20.621z M6,15.875l10,6.064v11.147
	L6,27.021V15.875z M18,33.086V21.939l10-6.064v11.147L18,33.086z"/>
</svg>
