<?xml version="1.0" encoding="utf-8"?>
<!DOCTYPE svg PUBLIC "-//W3C//DTD SVG 1.1//EN" "http://www.w3.org/Graphics/SVG/1.1/DTD/svg11.dtd">
<svg version="1.1" xmlns="http://www.w3.org/2000/svg" xmlns:xlink="http://www.w3.org/1999/xlink" x="0px" y="0px"
     width="64px" height="64px" viewBox="0 0 32 32" enable-background="new 0 0 32 32" xml:space="preserve">
<g>
    <path fill="#FFFFFF" d="M19,24c-0.002,1.657-1.346,3-3,3s-2.993-1.343-3-3H19z"/>
    <path fill="#FFFFFF" d="M26,21h-0.076l0,0c-1.826,0-1.992-1.537-2-2v-6c0-3.182-1.98-5.494-4.924-5.924v-0.08
        C18.993,5.344,17.646,4,16,4c-1.649,0-2.996,1.345-3,3v0.076C10.013,7.499,8,9.812,8,13l0.005,6.096
        c0,0.008,0.066,0.847-0.422,1.379C7.264,20.823,6.73,21,6,21l0,0c-0.553,0-1,0.447-1,1s0.447,1,1,1h20c0.553,0,1-0.447,1-1
        S26.553,21,26,21z M16,6c0.548,0,0.996,0.449,1,0.998l-1.999,0.001C15.004,6.448,15.451,6,16,6z M10,18.957V13
        c0-2.43,1.57-4,4.001-4l3.998-0.003c2.385,0.002,3.925,1.573,3.925,4.003v6c0,0.611,0.157,1.336,0.51,2H9.61
        C10.041,20.108,10.02,19.221,10,18.957z"/>
</g>
</svg>