<svg id="Layer_1" xmlns="http://www.w3.org/2000/svg" viewBox="0 0 356.6 120.2" height="50">
  <path d="M307.8 59.8c-3 23-5.4 42-6.7 42-1.8 0-8.4-29.1-14.9-56.4-8.4-35-12.9-45.4-23-45.4-17 0-23.8 54.5-23.8 65.1 0 6.5 3.3 9.2 7.3 9.2 6.5 0 9.3-5.4 10-11.5 3.2-26.3 7.2-38.3 8.3-38.3 1 0 4.7 9.8 13.7 44.9 8.7 33.6 12.9 49.2 20 49.2 9.4 0 13.2-23.4 17.4-58.3 2.4-19.4 4.4-38.7 6-38.7 1.1 0 3.3 17.9 5.4 35 2.8 23.6 4.2 34.9 8.9 34.9 6.3 0 8-17 10.6-41.5 2.2-20.8 3.5-29.5 4.1-29.5.7 0 1.3 5.5 1.6 17 .1 2.5.8 3.1 1.8 3.1 2 0 2-3.3 2-5.9 0-13.1-2.3-26.4-5.2-26.4-3.9 0-6.7 13.7-9.6 40.8-2.4 22-3.1 30.4-4.1 30.4-.8 0-1.9-10-4.1-27.9-3.5-28.8-4.8-46.1-11.9-46.1-6.8.2-8.9 15.8-13.8 54.3"
    fill="#8cc63f" />
  <path class="st1" d="M26.3 119.8h-4.2l-5.4-16.6c-.3-.8-.5-1.9-.7-3h-.2c-.1 1.1-.4 2.2-.7 3L10 119.8H5.7c-2.3-7.6-4.3-16-5.7-24.2 1.2-.2 2.9-.3 4.1-.3l3.6 16.6c.2.9.4 2.2.5 3.2h.2c.1-1 .4-2.3.7-3.3l5.1-16.4h4l5.2 16.4c.3.9.6 2.1.7 3.3h.2c.1-1.2.3-2.2.6-3.3l3.5-16.5c1.2 0 2.7.1 3.7.3-1.4 8.2-3.3 16.1-5.8 24.2M39.8 119.8V95.4H44v24.4h-4.2m2-28.6c-1.6 0-2.4-1.2-2.4-2.6 0-1.4.8-2.7 2.5-2.7 1.6 0 2.4 1.3 2.4 2.7 0 1.4-.8 2.6-2.5 2.6zM68 119.8v-17.2c0-2.4-1-3.8-4.1-3.8-2.3 0-4.2.7-6.1 1.9v19.2h-4.2V95.5c1.1-.2 2.9-.3 4.2-.3v2.4h.2c2.4-2.1 4.7-2.8 7.2-2.8 3.7 0 6.9 1.8 6.9 7.4v17.4H68M94.6 99.6c-1.1-.6-3-1-4.5-1-4.1 0-6.4 2.1-6.4 9.2 0 6.8 1.8 8.6 5.4 8.6 2 0 3.8-.4 5.6-1.6V99.6m5 20.6c-1.8 0-3.7-.5-4.6-2.9h-.2c-2.5 2.3-4.7 2.9-7.2 2.9-5.3 0-8.6-3.8-8.6-11.9 0-9.6 4.3-13.4 10.7-13.4 1.4 0 3.3.3 4.7.8V85.3c1.1-.2 2.9-.3 4.2-.3v29.5c0 1.2.3 1.6 1.4 1.6h2.7v1.3c.1 2-1.3 2.8-3.1 2.8zM114 120.2c-2.4 0-5.2-.5-7.1-1.5.3-1.4.6-2.6 1.1-3.8 1.9 1 4.6 1.5 6.9 1.5 2.7 0 3.8-1.2 3.8-3.2 0-4.9-11.3-3.3-11.3-10.8 0-5 4.2-7.5 9.2-7.5 1.5 0 3.9.2 5.7.7 0 1.2-.3 2.7-.6 3.9-1.7-.6-4.2-.9-6.2-.9-2.4 0-3.7 1-3.7 3.3 0 4.3 11.4 2.9 11.4 11.1-.2 5-4.4 7.2-9.2 7.2M138.2 120.2c-5 0-7.1-2.5-7.1-7.9V99h-2.9v-3.6h2.9v-5.2c1.1-.3 3-.7 4.2-.7v6h6.2c0 1.2-.1 2.4-.3 3.6h-5.9v13.6c0 2.9.9 3.6 3.3 3.6 1.1 0 2.6-.3 3.6-.7.3 1.1.5 2.5.6 3.7-1.3.5-3.2.9-4.6.9M169.6 105.4h10.2v-1.5c0-4-1.8-5.7-4.9-5.7-3.2 0-5.1 2.1-5.3 7.2m14.3 2.9h-14.3v.4c0 5.1 1.5 7.6 6.7 7.6 2.2 0 4.8-.7 6.3-1.5.4 1.1.8 2.7 1 3.9-1.9 1-5 1.6-7.4 1.6-7.3 0-11.2-4.1-11.2-12.3 0-9 4.3-13 10-13 5.9 0 9 3.6 9 9.9 0 .9 0 2.3-.1 3.4zM205.4 99.5c-1.3-.6-2.9-.8-4.2-.8-4.2 0-6.4 2.1-6.4 9.2 0 6.9 1.8 8.6 5.4 8.6 2 0 3.6-.6 5.2-1.6V99.5m4.2 15c0 1.2.3 1.6 1.4 1.6h2.7v1.3c0 2.1-1.4 2.9-3.2 2.9-1.9 0-3.6-.5-4.6-2.9h-.1c-2.1 2-4.2 2.9-6.6 2.9-5.4 0-8.7-3.6-8.7-11.9 0-9.2 4.2-13.4 10.7-13.4 1.4 0 2.8.2 4.3.7.7-.4 1.7-.6 2.7-.6.6 0 1.1 0 1.5.1v19.3zM246.4 119.8v-17.2c0-2.3-1-3.8-3.9-3.8-2.2 0-3.7.7-5.3 2v19.1H233v-17.2c0-2.3-1.1-3.8-3.8-3.8-1.9 0-3.6.7-5.3 1.9V120h-4.2V95.5c1.1-.2 2.9-.3 4.2-.3v2.4h.2c2.2-2 4-2.8 6.4-2.8 2.5 0 4.6.9 5.7 3.3 2.6-2.4 4.8-3.3 7.5-3.3 3.8 0 7 1.9 7 7.4v17.5h-4.3M161 99.5c-.5-.1-1.3-.3-2.1-.3-1.7 0-3.3.3-5.4 2.4v18.1h-4.2V95.5c1.1-.2 2.9-.3 4.2-.3v3.1h.2c2.7-3.2 4.3-3.5 5.8-3.5.5 0 1.3 0 1.9.2 0 1.5-.2 3.1-.4 4.5" />
</svg>