<?xml version="1.0" encoding="utf-8"?><svg width="114" height="96" viewBox="0 0 114 96" xmlns="http://www.w3.org/2000/svg" xmlns:xlink="http://www.w3.org/1999/xlink"><svg width="38" height="32" viewBox="-3 0 38 32" id="add_active" xmlns="http://www.w3.org/2000/svg"><g fill="#fff"><path d="M17.002 9h-2v6h-6v2h6v6h2v-6h6v-2h-6z"/><path d="M16.002 4c-6.627 0-12 5.373-12 12.001 0 6.627 5.373 11.999 12 11.999s12-5.372 12-11.999c0-6.628-5.373-12.001-12-12.001zm0 22c-5.516 0-10-4.485-10-9.999 0-5.515 4.484-10.001 10-10.001 5.514 0 10 4.486 10 10.001 0 5.514-4.486 9.999-10 9.999z"/></g></svg><svg width="38" height="32" viewBox="-3 0 38 32" id="add_enabled" x="38" xmlns="http://www.w3.org/2000/svg"><g fill="#878C90"><path d="M17.002 9h-2v6h-6v2h6v6h2v-6h6v-2h-6z"/><path d="M16.002 4c-6.627 0-12 5.373-12 12.001 0 6.627 5.373 11.999 12 11.999s12-5.372 12-11.999c0-6.628-5.373-12.001-12-12.001zm0 22c-5.516 0-10-4.485-10-9.999 0-5.515 4.484-10.001 10-10.001 5.514 0 10 4.486 10 10.001 0 5.514-4.486 9.999-10 9.999z"/></g></svg><svg width="38" height="32" viewBox="-3 0 38 32" id="expenses" y="32" xmlns="http://www.w3.org/2000/svg"><g fill="#3CAF85"><path d="M24 17H5a1 1 0 0 1-1-1V6a1 1 0 0 1 1-1h19a1 1 0 0 1 1 1v10a1 1 0 0 1-1 1zM6 15h17V7H6v8z"/><path d="M27 20H7v-2h19V8h2v11a1 1 0 0 1-1 1z"/><circle cx="21" cy="23" r="3"/><circle cx="15" cy="26" r="2"/></g></svg><svg width="38" height="32" viewBox="-3 0 38 32" id="inventory_deinstall" x="38" y="32" xmlns="http://www.w3.org/2000/svg"><circle fill="#22B5BD" cx="25.199" cy="22.285" r="2.715"/><circle fill="#22B5BD" cx="8.42" cy="22.285" r="2.715"/><path fill="#22B5BD" d="M29.002 15h-10v-5h4.969l2.602 4h1.43l-4-6H3l.002 14H4.66c.208-1.909 1.802-3.451 3.76-3.451 2.002 0 3.624 1.491 3.771 3.451h9.234c.148-1.967 1.771-3.521 3.773-3.521 1.473 0 2.754.834 3.381 2.059-.004.024.422.017.422.017V15z"/><path fill="#FFF" d="M14.915 13.5l1.793-1.793a.999.999 0 1 0-1.414-1.414l-1.793 1.793-1.793-1.793a.999.999 0 1 0-1.414 1.414l1.793 1.793-1.793 1.793a.999.999 0 1 0 1.414 1.414l1.793-1.793 1.793 1.793a.997.997 0 0 0 1.414 0 .999.999 0 0 0 0-1.414L14.915 13.5z"/></svg><svg width="38" height="32" viewBox="-3 0 38 32" id="inventory_install" x="76" xmlns="http://www.w3.org/2000/svg"><path fill="#309FDB" d="M25.562 13.355V6h-4.124v4.183L16 6 3 16h3v9h20v-9h3z"/><path fill="#FFF" d="M14.814 22a1 1 0 0 1-.704-.29l-2.814-2.789a1 1 0 1 1 1.409-1.42l2.109 2.091 4.482-4.446a1 1 0 0 1 1.408 1.42l-5.186 5.145a1 1 0 0 1-.704.289z"/></svg><svg width="38" height="32" viewBox="-3 0 38 32" id="remove_enabled" x="76" y="32" xmlns="http://www.w3.org/2000/svg"><path fill="#878C90" d="M9 15h14v2H9z"/><path fill="#878C90" d="M16 6c5.514 0 10 4.486 10 10.001S21.514 26 16 26 6 21.516 6 16.001C6 10.486 10.486 6 16 6m0-2C9.373 4 4 9.373 4 16.001 4 22.628 9.373 28 16 28c6.628 0 12-5.372 12-11.999C28 9.373 22.628 4 16 4z"/><path fill="none" d="M0 0h32v32H0z"/></svg><svg width="38" height="32" viewBox="-3 0 38 32" id="remove_selected" y="64" xmlns="http://www.w3.org/2000/svg"><path fill="#FFF" d="M9.002 15h14v2h-14z"/><path fill="#FFF" d="M16.002 6c5.514 0 10 4.486 10 10.001S21.516 26 16.002 26c-5.516 0-10-4.484-10-9.999 0-5.515 4.484-10.001 10-10.001m0-2c-6.627 0-12 5.373-12 12.001 0 6.627 5.373 11.999 12 11.999s12-5.372 12-11.999c0-6.628-5.373-12.001-12-12.001z"/><path fill="none" d="M0 0h32v32H0z"/></svg><svg width="38" height="32" viewBox="-3 0 38 32" id="time_spent" x="38" y="64" xmlns="http://www.w3.org/2000/svg"><g fill="#F4AA46"><path d="M24.96 11.634L26 10.595 23.406 8l-1.04 1.04A10.919 10.919 0 0 0 17 7.051V6h1c.55 0 1-.45 1-1v-.999c0-.55-.45-1-1-1h-4c-.55 0-1 .45-1 1V5c0 .55.45 1 1 1h1v1.05C9.396 7.556 5 12.262 5 18c0 6.074 4.926 11 10.998 11C22.075 29 27 24.074 27 18c0-2.375-.76-4.567-2.04-6.366zM15.998 27C11.037 27 7 22.962 7 18s4.037-9 8.998-9C20.962 9 25 13.038 25 18s-4.038 9-9.002 9z"/><path d="M15.998 11l-.037.002v6.934h7.036A6.996 6.996 0 0 0 15.998 11z"/></g></svg></svg>