<?xml version="1.0" encoding="utf-8"?>
<!-- Generator: Adobe Illustrator 16.0.4, SVG Export Plug-In . SVG Version: 6.00 Build 0)  -->
<!DOCTYPE svg PUBLIC "-//W3C//DTD SVG 1.1//EN" "http://www.w3.org/Graphics/SVG/1.1/DTD/svg11.dtd">
<svg version="1.1" id="icon" xmlns="http://www.w3.org/2000/svg" xmlns:xlink="http://www.w3.org/1999/xlink" x="0px" y="0px"
	 width="32px" height="32px" viewBox="0 0 32 32" enable-background="new 0 0 32 32" xml:space="preserve">
<g>
	<path fill="#3CAF85" d="M24,17H5c-0.552,0-1-0.447-1-1V6c0-0.553,0.448-1,1-1h19c0.553,0,1,0.447,1,1v10C25,16.553,24.553,17,24,17
		z M6,15h17V7H6V15z"/>
	<path fill="#3CAF85" d="M27,20H7v-2h19V8h2v11C28,19.553,27.553,20,27,20z"/>
	<circle fill="#3CAF85" cx="21" cy="23" r="3"/>
	<circle fill="#3CAF85" cx="15" cy="26" r="2"/>
</g>
</svg>
