<?xml version="1.0" encoding="utf-8"?>
<!-- Generator: Adobe Illustrator 16.0.4, SVG Export Plug-In . SVG Version: 6.00 Build 0)  -->
<!DOCTYPE svg PUBLIC "-//W3C//DTD SVG 1.1//EN" "http://www.w3.org/Graphics/SVG/1.1/DTD/svg11.dtd">
<svg version="1.1" id="icon" xmlns="http://www.w3.org/2000/svg" xmlns:xlink="http://www.w3.org/1999/xlink" x="0px" y="0px"
	 width="32px" height="32px" viewBox="0 0 32 32" enable-background="new 0 0 32 32" xml:space="preserve">
<g>
	<polygon fill="#309FDB" points="25.562,13.355 25.562,6 21.438,6 21.438,10.183 16,6 3,16 6,16 6,25 26,25 26,16 29,16 	"/>
	<path fill="#FFFFFF" d="M14.814,22c-0.254,0-0.509-0.097-0.704-0.29l-2.814-2.789c-0.392-0.389-0.395-1.021-0.006-1.414
		c0.389-0.393,1.021-0.396,1.415-0.006l2.109,2.091l4.482-4.446c0.392-0.388,1.026-0.386,1.414,0.006
		c0.39,0.392,0.386,1.025-0.006,1.414l-5.186,5.145C15.323,21.903,15.069,22,14.814,22z"/>
</g>
</svg>
