<?xml version="1.0" encoding="utf-8"?>
<!-- Generator: Adobe Illustrator 16.0.4, SVG Export Plug-In . SVG Version: 6.00 Build 0)  -->
<!DOCTYPE svg PUBLIC "-//W3C//DTD SVG 1.1//EN" "http://www.w3.org/Graphics/SVG/1.1/DTD/svg11.dtd">
<svg version="1.1" id="icon" xmlns="http://www.w3.org/2000/svg" xmlns:xlink="http://www.w3.org/1999/xlink" x="0px" y="0px"
	 width="32px" height="32px" viewBox="0 0 32 32" enable-background="new 0 0 32 32" xml:space="preserve">
<g>
	<circle fill="#22B5BD" cx="25.199" cy="22.285" r="2.715"/>
	<circle fill="#22B5BD" cx="8.42" cy="22.285" r="2.715"/>
	<path fill="#22B5BD" d="M29.002,15h-10v-5h4.969l2.602,4h1.43l-4-6H3l0.002,14H4.66c0.208-1.909,1.802-3.451,3.76-3.451
		c2.002,0,3.624,1.491,3.771,3.451h9.234c0.148-1.967,1.771-3.521,3.773-3.521c1.473,0,2.754,0.834,3.381,2.059
		c-0.004,0.024,0.422,0.017,0.422,0.017V15z"/>
	<path fill="#FFFFFF" d="M14.915,13.5l1.793-1.793c0.391-0.391,0.391-1.023,0-1.414s-1.023-0.391-1.414,0l-1.793,1.793l-1.793-1.793
		c-0.391-0.391-1.023-0.391-1.414,0s-0.391,1.023,0,1.414l1.793,1.793l-1.793,1.793c-0.391,0.391-0.391,1.023,0,1.414
		C10.489,16.902,10.745,17,11.001,17s0.512-0.098,0.707-0.293l1.793-1.793l1.793,1.793C15.489,16.902,15.745,17,16.001,17
		s0.512-0.098,0.707-0.293c0.391-0.391,0.391-1.023,0-1.414L14.915,13.5z"/>
</g>
</svg>
