<?xml version="1.0" encoding="utf-8"?>
<!-- Generator: Adobe Illustrator 16.0.4, SVG Export Plug-In . SVG Version: 6.00 Build 0)  -->
<!DOCTYPE svg PUBLIC "-//W3C//DTD SVG 1.1//EN" "http://www.w3.org/Graphics/SVG/1.1/DTD/svg11.dtd">
<svg version="1.1" id="Ball_1" xmlns="http://www.w3.org/2000/svg" xmlns:xlink="http://www.w3.org/1999/xlink" x="0px" y="0px"
	 width="32px" height="32px" viewBox="0 0 32 32" enable-background="new 0 0 32 32" xml:space="preserve">
<g id="Ball_1_1_">
	<g>
		<g>
			<rect x="9" y="15" fill="#878C90" width="14" height="2"/>
		</g>
		<path fill="#878C90" d="M16,6c5.514,0,10,4.486,10,10.001C26,21.516,21.514,26,16,26c-5.514,0-10-4.484-10-9.999
			C6,10.486,10.486,6,16,6 M16,4C9.373,4,4,9.373,4,16.001C4,22.628,9.373,28,16,28c6.628,0,12-5.372,12-11.999
			C28,9.373,22.628,4,16,4L16,4z"/>
	</g>
	<rect fill="none" width="32" height="32"/>
</g>
<g id="Ball_2" display="none">
</g>
</svg>
