<?xml version="1.0" encoding="utf-8"?>
<!-- Generator: Adobe Illustrator 16.0.4, SVG Export Plug-In . SVG Version: 6.00 Build 0)  -->
<!DOCTYPE svg PUBLIC "-//W3C//DTD SVG 1.1//EN" "http://www.w3.org/Graphics/SVG/1.1/DTD/svg11.dtd">
<svg version="1.1" id="Ball_1" xmlns="http://www.w3.org/2000/svg" xmlns:xlink="http://www.w3.org/1999/xlink" x="0px" y="0px"
	 width="32px" height="32px" viewBox="0 0 32 32" enable-background="new 0 0 32 32" xml:space="preserve">
<g id="Ball_1_1_">
	<g>
		<g>
			<rect x="9.002" y="15" fill="#FFFFFF" width="14" height="2"/>
		</g>
		<path fill="#FFFFFF" d="M16.002,6c5.514,0,10,4.486,10,10.001c0,5.515-4.486,9.999-10,9.999c-5.516,0-10-4.484-10-9.999
			C6.002,10.486,10.486,6,16.002,6 M16.002,4c-6.627,0-12,5.373-12,12.001c0,6.627,5.373,11.999,12,11.999s12-5.372,12-11.999
			C28.002,9.373,22.629,4,16.002,4L16.002,4z"/>
	</g>
	<rect fill="none" width="32" height="32"/>
</g>
<g id="Ball_2" display="none">
</g>
</svg>
